<?xml version="1.0" encoding="utf-8"?>
<!-- Generator: Adobe Illustrator 19.0.0, SVG Export Plug-In . SVG Version: 6.00 Build 0)  -->
<svg version="1.0" xmlns="http://www.w3.org/2000/svg" xmlns:xlink="http://www.w3.org/1999/xlink" x="0px" y="0px"
	 viewBox="0 0 1918 187.4" style="enable-background:new 0 0 1918 187.4;" xml:space="preserve">
<style type="text/css">
	.st0{fill:#24292C;}
	.st1{fill:#EEEFE9;}
	.st2{fill:url(#XMLID_405_);}
	.st3{fill:url(#XMLID_406_);}
	.st4{fill:#24292C;stroke:#FFFFFF;stroke-linecap:round;stroke-miterlimit:10;}
	.st5{fill:#F39F22;}
	.st6{fill:#FFFFFF;}
	.st7{fill:none;stroke:#FFFFFF;stroke-linecap:round;stroke-miterlimit:10;}
	.st8{fill:none;}
	.st9{fill:#3F3F3D;}
	.st10{fill:none;stroke:#EEEFE9;stroke-width:0.2835;stroke-linecap:round;stroke-miterlimit:10;}
	.st11{fill:#BDCCD4;}
	.st12{fill:#B5CCD4;}
</style>
<g id="Layer_3">
	<rect id="XMLID_103_" x="2186" y="771.3" class="st0" width="1920" height="1080"/>
	<rect id="XMLID_366_" x="5505" y="771.3" class="st0" width="1080" height="1080"/>
</g>
<g id="Capa_1">
</g>
<g id="Layer_1">
	<path id="XMLID_74_" class="st1" d="M2557.1,1390.4l-47.7-66.1c-6.3,1.3-13.6,1.9-22,1.9h-58.1v64.3h-5.4V1203h63.5
		c23,0,41.1,5.4,54.1,16.2c13,10.8,19.5,25.9,19.5,45.4c0,15-4,27.5-12,37.6c-8,10.1-19.4,17-34,20.8l48.7,67.5H2557.1z
		 M2488,1321.1c21.8,0,38.5-4.9,50.2-14.7c11.7-9.8,17.5-23.7,17.5-41.8c0-18-5.8-32-17.5-41.8c-11.7-9.8-28.4-14.7-50.2-14.7h-58.6
		v113H2488z"/>
	<path id="XMLID_72_" class="st1" d="M2750,1203v187.4h-5.4v-92.6h-136.6v92.6h-5.4V1203h5.4v89.7h136.6V1203H2750z"/>
	<path id="XMLID_70_" class="st1" d="M2788.9,1203h5.4v187.4h-5.4V1203z"/>
	<path id="XMLID_68_" class="st1" d="M2902.8,1208.1h-69.6v-5.1h144.6v5.1h-69.6v182.3h-5.4V1208.1z"/>
	<path id="XMLID_66_" class="st1" d="M3141.5,1385.3v5.1h-124.8V1203h120.8v5.1H3022v84.6h103.4v5.1H3022v87.6H3141.5z"/>
	<path id="XMLID_64_" class="st1" d="M3326.6,1390.4l-69.9-92.9l-69.9,92.9h-6.4l73.1-96.9l-67.7-90.5h6.7l64.5,86.5l64.5-86.5h6.4
		l-67.7,90.5l73.1,96.9H3326.6z"/>
	<path id="XMLID_62_" class="st1" d="M3441.8,1208.1h-69.6v-5.1h144.6v5.1h-69.6v182.3h-5.4V1208.1z"/>
	<path id="XMLID_60_" class="st1" d="M3574.7,1371.1c-12.7-13.4-19-33.1-19-59.2v-109h5.4v108.7c0,24.6,5.8,43.2,17.3,55.7
		c11.5,12.5,28.1,18.7,49.7,18.7c21.6,0,38.2-6.2,49.7-18.7c11.5-12.5,17.3-31.1,17.3-55.7V1203h5.4v109c0,26.1-6.3,45.8-19,59.2
		c-12.7,13.4-30.4,20.1-53.3,20.1C3605.1,1391.2,3587.4,1384.5,3574.7,1371.1z"/>
	<path id="XMLID_57_" class="st1" d="M3872.3,1390.4l-47.7-66.1c-6.3,1.3-13.6,1.9-22,1.9h-58.1v64.3h-5.4V1203h63.5
		c23,0,41.1,5.4,54.1,16.2c13,10.8,19.5,25.9,19.5,45.4c0,15-4,27.5-12,37.6c-8,10.1-19.4,17-34,20.8l48.7,67.5H3872.3z
		 M3803.2,1321.1c21.8,0,38.5-4.9,50.2-14.7c11.7-9.8,17.5-23.7,17.5-41.8c0-18-5.8-32-17.5-41.8c-11.7-9.8-28.4-14.7-50.2-14.7
		h-58.6v113H3803.2z"/>
	<path id="XMLID_54_" class="st1" d="M4064.9,1333.9h-114.6l-26.2,56.5h-6.2l87-187.4h5.4l87,187.4h-6.2L4064.9,1333.9z
		 M4062.5,1328.8l-54.9-118.6l-54.9,118.6H4062.5z"/>
	<linearGradient id="XMLID_405_" gradientUnits="userSpaceOnUse" x1="2257.6157" y1="1301.9573" x2="2257.6157" y2="1390.3062">
		<stop  offset="0" style="stop-color:#FFCC5B"/>
		<stop  offset="0.2041" style="stop-color:#FCCA5B;stop-opacity:0.7959"/>
		<stop  offset="0.3564" style="stop-color:#F2C45C;stop-opacity:0.6436"/>
		<stop  offset="0.492" style="stop-color:#E2BA5D;stop-opacity:0.508"/>
		<stop  offset="0.6178" style="stop-color:#CCAB5E;stop-opacity:0.3822"/>
		<stop  offset="0.7368" style="stop-color:#AE9860;stop-opacity:0.2632"/>
		<stop  offset="0.8508" style="stop-color:#8A8162;stop-opacity:0.1492"/>
		<stop  offset="0.9588" style="stop-color:#606665;stop-opacity:4.124427e-002"/>
		<stop  offset="1" style="stop-color:#4E5A66;stop-opacity:0"/>
	</linearGradient>
	<polygon id="XMLID_136_" class="st2" points="2216.7,1390.3 2217,1390.3 2298.5,1390.3 2257.6,1302 	"/>
	<linearGradient id="XMLID_406_" gradientUnits="userSpaceOnUse" x1="5881.6992" y1="1331.8926" x2="5881.6992" y2="1713.3062">
		<stop  offset="0" style="stop-color:#FFCC5B"/>
		<stop  offset="0.2041" style="stop-color:#FCCA5B;stop-opacity:0.7959"/>
		<stop  offset="0.3564" style="stop-color:#F2C45C;stop-opacity:0.6436"/>
		<stop  offset="0.492" style="stop-color:#E2BA5D;stop-opacity:0.508"/>
		<stop  offset="0.6178" style="stop-color:#CCAB5E;stop-opacity:0.3822"/>
		<stop  offset="0.7368" style="stop-color:#AE9860;stop-opacity:0.2632"/>
		<stop  offset="0.8508" style="stop-color:#8A8162;stop-opacity:0.1492"/>
		<stop  offset="0.9588" style="stop-color:#606665;stop-opacity:4.124427e-002"/>
		<stop  offset="1" style="stop-color:#4E5A66;stop-opacity:0"/>
	</linearGradient>
	<polygon id="XMLID_400_" class="st3" points="5705.2,1713.3 6058.2,1713.3 5881.7,1331.9 	"/>
	<polygon id="XMLID_137_" class="st1" points="2298.1,1203.3 2292.8,1203.3 2205.7,1390.3 2216.6,1390.3 2216.7,1390.3 2257.6,1302 
		2298.5,1390.3 2299,1390.3 2385.1,1390.3 	"/>
	<g id="XMLID_425_">
		<polygon id="XMLID_4_" class="st0" points="2257.6,99 2298.5,187.3 2385.1,187.3 2298.1,0.3 2292.8,0.3 2205.7,187.3 
			2216.7,187.3 		"/>
		<path id="XMLID_6_" class="st0" d="M2557.1,187.4l-47.7-66.1c-6.3,1.3-13.6,1.9-22,1.9h-58.1v64.3h-5.4V0h63.5
			c23,0,41.1,5.4,54.1,16.2c13,10.8,19.5,25.9,19.5,45.4c0,15-4,27.5-12,37.6c-8,10.1-19.4,17-34,20.8l48.7,67.5H2557.1z
			 M2488,118.1c21.8,0,38.5-4.9,50.2-14.7c11.7-9.8,17.5-23.7,17.5-41.8c0-18-5.8-32-17.5-41.8c-11.7-9.8-28.4-14.7-50.2-14.7h-58.6
			v113H2488z"/>
		<path id="XMLID_9_" class="st0" d="M2750,0v187.4h-5.4V94.8h-136.6v92.6h-5.4V0h5.4v89.7h136.6V0H2750z"/>
		<path id="XMLID_11_" class="st0" d="M2788.9,0h5.4v187.4h-5.4V0z"/>
		<path id="XMLID_13_" class="st0" d="M2902.8,5.1h-69.6V0h144.6v5.1h-69.6v182.3h-5.4V5.1z"/>
		<path id="XMLID_15_" class="st0" d="M3141.5,182.3v5.1h-124.8V0h120.8v5.1H3022v84.6h103.4v5.1H3022v87.6H3141.5z"/>
		<path id="XMLID_17_" class="st0" d="M3326.6,187.4l-69.9-92.9l-69.9,92.9h-6.4l73.1-96.9L3185.7,0h6.7l64.5,86.5L3321.5,0h6.4
			l-67.7,90.5l73.1,96.9H3326.6z"/>
		<path id="XMLID_19_" class="st0" d="M3441.8,5.1h-69.6V0h144.6v5.1h-69.6v182.3h-5.4V5.1z"/>
		<path id="XMLID_21_" class="st0" d="M3574.7,168.1c-12.7-13.4-19-33.1-19-59.2V0h5.4v108.7c0,24.6,5.8,43.2,17.3,55.7
			c11.5,12.5,28.1,18.7,49.7,18.7c21.6,0,38.2-6.2,49.7-18.7c11.5-12.5,17.3-31.1,17.3-55.7V0h5.4v109c0,26.1-6.3,45.8-19,59.2
			c-12.7,13.4-30.4,20.1-53.3,20.1C3605.1,188.2,3587.4,181.5,3574.7,168.1z"/>
		<path id="XMLID_23_" class="st0" d="M3872.3,187.4l-47.7-66.1c-6.3,1.3-13.6,1.9-22,1.9h-58.1v64.3h-5.4V0h63.5
			c23,0,41.1,5.4,54.1,16.2c13,10.8,19.5,25.9,19.5,45.4c0,15-4,27.5-12,37.6c-8,10.1-19.4,17-34,20.8l48.7,67.5H3872.3z
			 M3803.2,118.1c21.8,0,38.5-4.9,50.2-14.7c11.7-9.8,17.5-23.7,17.5-41.8c0-18-5.8-32-17.5-41.8c-11.7-9.8-28.4-14.7-50.2-14.7
			h-58.6v113H3803.2z"/>
		<path id="XMLID_26_" class="st0" d="M4064.9,130.9h-114.6l-26.2,56.5h-6.2l87-187.4h5.4l87,187.4h-6.2L4064.9,130.9z
			 M4062.5,125.8L4007.6,7.2l-54.9,118.6H4062.5z"/>
		<g id="XMLID_2_">
			<g id="XMLID_35_">
				<path id="XMLID_45_" class="st0" d="M2271.5,151c1.5-1,2,1.1,4.5,6.1c2.6,5,6.7,14.9,4.9,15.9c-1.8,0.9-4.2-2.1-5.9-4.5
					c-1.6-2.3-2-8.8-2.5-10.6C2272,156.3,2270.7,151.6,2271.5,151z"/>
				<path id="XMLID_40_" class="st0" d="M2244.5,151c-1.5-1-2,1.1-4.5,6.1c-2.6,5-6.7,14.9-4.9,15.9c1.8,0.9,4.2-2.1,5.9-4.5
					c1.6-2.3,2-8.8,2.5-10.6C2244,156.3,2245.3,151.6,2244.5,151z"/>
				<path id="XMLID_37_" class="st0" d="M2274.3,154.6c-1.1-6.6-2.2-12.8-2.4-13.5c-1.7-6-7.3-10.5-13.9-10.5
					c-6.6,0-12.2,4.4-13.9,10.5c-0.2,0.7-1.4,6.9-2.4,13.5c0,0-1.6,12-1.7,16c0,5.7,3.6,10.5,8.1,13.5c2.8,1.9,6.2,2.9,9.9,2.9
					c3.6,0,7-1.1,9.9-2.9c4.5-2.9,8.1-7.8,8.1-13.5C2276,166.6,2274.3,154.6,2274.3,154.6z M2258,183.9c-8.2,0-14.9-6.7-14.9-14.9
					c0-5.3,3.5-25.3,4.1-27c1.1-3.4,4.2-4.9,7.2-3.5c2.3,1.1,3.6,4.1,3.6,4.1s1.3-3,3.6-4.1c3-1.4,6.2,0.1,7.2,3.5
					c0.5,1.7,4.1,21.7,4.1,27C2272.9,177.2,2266.3,183.9,2258,183.9z"/>
			</g>
			<path id="XMLID_33_" class="st0" d="M2248,184.2c-1.6,0.1-3,0.9-2.9,3.2h7.2h11.1h7.2c0.1-2.3-1.3-3.1-2.9-3.2
				c-2.8,1.9-6.2,2.9-9.9,2.9C2254.3,187.2,2250.9,186.1,2248,184.2z"/>
			<path id="XMLID_32_" class="st0" d="M2261.4,150.2c0,0-0.8-2.6-3.1-2.6c-2.2,0-3.1,2.6-3.1,2.6l3.1,2.2L2261.4,150.2z"/>
			<circle id="XMLID_31_" class="st0" cx="2263.5" cy="145.1" r="2"/>
			<path id="XMLID_30_" class="st0" d="M2264.5,145.2c-0.3-0.4-0.7-0.7-1.3-0.6c-0.3,0.1-0.5,0.2-0.7,0.4c-0.1-0.5,0.3-1,0.9-1.1
				c0.6-0.1,1.1,0.3,1.2,0.9C2264.5,144.8,2264.5,145,2264.5,145.2z"/>
			<circle id="XMLID_29_" class="st0" cx="2252.3" cy="145.1" r="2"/>
			<path id="XMLID_5_" class="st0" d="M2251.3,144.6c0.1-0.6,0.6-0.9,1.2-0.9c0.5,0.1,0.9,0.6,0.9,1.1c-0.1-0.2-0.4-0.3-0.7-0.4
				c-0.6-0.1-1.1,0.2-1.3,0.6C2251.3,145,2251.3,144.8,2251.3,144.6z"/>
			<path id="XMLID_3_" class="st4" d="M2264.7,145.2"/>
		</g>
	</g>
	<g id="XMLID_427_">
		<polygon id="XMLID_465_" class="st0" points="2242,2142.6 2270.5,2204.3 2331.1,2204.3 2270.3,2073.3 2266.5,2073.3 
			2205.7,2204.3 2213.4,2204.3 		"/>
		<path id="XMLID_462_" class="st0" d="M2451.2,2203.9l-33.3-46.2c-4.4,0.9-9.5,1.3-15.3,1.3H2362v44.9h-3.7V2073h44.3
			c16.1,0,28.7,3.8,37.8,11.3c9.1,7.5,13.7,18.1,13.7,31.7c0,10.5-2.8,19.2-8.4,26.3c-5.6,7-13.5,11.9-23.8,14.5l34,47.1H2451.2z
			 M2403,2155.5c15.2,0,26.9-3.4,35.1-10.3c8.2-6.9,12.3-16.6,12.3-29.2c0-12.6-4.1-22.3-12.3-29.2c-8.2-6.9-19.9-10.3-35.1-10.3
			h-41v78.9H2403z"/>
		<path id="XMLID_460_" class="st0" d="M2586,2073v130.9h-3.7v-64.7h-95.4v64.7h-3.7V2073h3.7v62.7h95.4V2073H2586z"/>
		<path id="XMLID_458_" class="st0" d="M2613.2,2073h3.7v130.9h-3.7V2073z"/>
		<path id="XMLID_456_" class="st0" d="M2692.7,2076.6h-48.6v-3.6h101v3.6h-48.6v127.4h-3.7V2076.6z"/>
		<path id="XMLID_454_" class="st0" d="M2859.4,2200.4v3.6h-87.2V2073h84.4v3.6H2776v59.1h72.2v3.6H2776v61.2H2859.4z"/>
		<path id="XMLID_452_" class="st0" d="M2988.8,2203.9l-48.8-64.9l-48.8,64.9h-4.5l51.1-67.7l-47.3-63.2h4.7l45.1,60.4l45.1-60.4
			h4.5l-47.3,63.2l51.1,67.7H2988.8z"/>
		<path id="XMLID_450_" class="st0" d="M3069.3,2076.6h-48.6v-3.6h101v3.6H3073v127.4h-3.7V2076.6z"/>
		<path id="XMLID_448_" class="st0" d="M3162.1,2190.5c-8.9-9.4-13.3-23.1-13.3-41.3V2073h3.7v75.9c0,17.2,4,30.2,12.1,38.9
			c8,8.7,19.6,13.1,34.7,13.1c15.1,0,26.7-4.4,34.7-13.1c8-8.7,12.1-21.7,12.1-38.9V2073h3.7v76.1c0,18.2-4.4,32-13.3,41.3
			c-8.9,9.4-21.3,14-37.2,14C3183.4,2204.5,3171,2199.8,3162.1,2190.5z"/>
		<path id="XMLID_445_" class="st0" d="M3370,2203.9l-33.3-46.2c-4.4,0.9-9.5,1.3-15.3,1.3h-40.6v44.9h-3.7V2073h44.3
			c16.1,0,28.7,3.8,37.8,11.3c9.1,7.5,13.7,18.1,13.7,31.7c0,10.5-2.8,19.2-8.4,26.3c-5.6,7-13.5,11.9-23.8,14.5l34,47.1H3370z
			 M3321.7,2155.5c15.2,0,26.9-3.4,35.1-10.3c8.2-6.9,12.3-16.6,12.3-29.2c0-12.6-4.1-22.3-12.3-29.2c-8.2-6.9-19.9-10.3-35.1-10.3
			h-41v78.9H3321.7z"/>
		<path id="XMLID_442_" class="st0" d="M3504.5,2164.5h-80.1l-18.3,39.5h-4.3l60.8-130.9h3.7l60.8,130.9h-4.3L3504.5,2164.5z
			 M3502.8,2160.9l-38.3-82.9l-38.3,82.9H3502.8z"/>
		<g id="XMLID_428_">
			<g id="XMLID_436_">
				<path id="XMLID_441_" class="st0" d="M2251.7,2178.5c1-0.7,1.4,0.8,3.2,4.3c1.8,3.5,4.7,10.4,3.4,11.1c-1.2,0.7-2.9-1.5-4.1-3.1
					c-1.1-1.6-1.4-6.2-1.8-7.4C2252.1,2182.2,2251.1,2178.9,2251.7,2178.5z"/>
				<path id="XMLID_440_" class="st0" d="M2232.8,2178.5c-1-0.7-1.4,0.8-3.2,4.3c-1.8,3.5-4.7,10.4-3.4,11.1
					c1.2,0.7,2.9-1.5,4.1-3.1c1.1-1.6,1.4-6.2,1.8-7.4C2232.4,2182.2,2233.4,2178.9,2232.8,2178.5z"/>
				<path id="XMLID_437_" class="st0" d="M2253.7,2181c-0.7-4.6-1.6-8.9-1.7-9.4c-1.2-4.2-5.1-7.3-9.7-7.3c-4.6,0-8.5,3.1-9.7,7.3
					c-0.1,0.5-1,4.8-1.7,9.4c0,0-1.1,8.4-1.2,11.2c0,4,2.5,7.4,5.7,9.4c2,1.3,4.3,2.1,6.9,2.1c2.5,0,4.9-0.8,6.9-2.1
					c3.1-2.1,5.7-5.5,5.7-9.4C2254.8,2189.4,2253.7,2181,2253.7,2181z M2242.3,2201.5c-5.7,0-10.4-4.7-10.4-10.4
					c0-3.7,2.5-17.7,2.8-18.9c0.7-2.3,3-3.4,5.1-2.4c1.6,0.8,2.5,2.8,2.5,2.8s0.9-2.1,2.5-2.8c2.1-1,4.3,0.1,5.1,2.4
					c0.4,1.2,2.8,15.2,2.8,18.9C2252.7,2196.8,2248,2201.5,2242.3,2201.5z"/>
			</g>
			<path id="XMLID_435_" class="st5" d="M2235.3,2201.7c-1.1,0.1-2.1,0.6-2,2.2h5.1h7.7h5.1c0.1-1.6-0.9-2.1-2-2.2
				c-2,1.3-4.3,2.1-6.9,2.1C2239.6,2203.8,2237.3,2203,2235.3,2201.7z"/>
			<path id="XMLID_434_" class="st5" d="M2244.6,2177.9c0,0-0.6-1.8-2.1-1.8c-1.5,0-2.1,1.8-2.1,1.8l2.1,1.5L2244.6,2177.9z"/>
			<circle id="XMLID_433_" class="st0" cx="2246.1" cy="2174.4" r="1.4"/>
			<path id="XMLID_432_" class="st6" d="M2246.8,2174.4c-0.2-0.3-0.5-0.5-0.9-0.4c-0.2,0-0.4,0.1-0.5,0.3c0-0.4,0.2-0.7,0.6-0.8
				c0.4-0.1,0.8,0.2,0.8,0.6C2246.8,2174.2,2246.8,2174.3,2246.8,2174.4z"/>
			<circle id="XMLID_431_" class="st0" cx="2238.3" cy="2174.4" r="1.4"/>
			<path id="XMLID_430_" class="st6" d="M2237.6,2174c0.1-0.4,0.4-0.7,0.8-0.6c0.4,0.1,0.6,0.4,0.6,0.8c-0.1-0.1-0.3-0.2-0.5-0.3
				c-0.4-0.1-0.7,0.1-0.9,0.4C2237.6,2174.3,2237.6,2174.2,2237.6,2174z"/>
			<path id="XMLID_429_" class="st7" d="M2246.9,2174.4"/>
		</g>
	</g>
	<g id="XMLID_297_">
		<polygon id="XMLID_271_" class="st0" points="4657.7,1331.9 4834.2,1713.3 5208.2,1713.3 4832.6,906.3 4809.4,906.3 
			4433.8,1713.3 4481.2,1713.3 		"/>
		<g id="XMLID_257_">
			<g id="XMLID_265_">
				<path id="XMLID_270_" class="st0" d="M4717.6,1558.8c6.5-4.4,8.5,4.7,19.6,26.3c11.1,21.5,29.1,64.5,21.1,68.8
					c-7.7,4.1-18.2-9.1-25.5-19.3c-7-9.9-8.6-38.1-10.9-45.8C4719.9,1581.7,4714.2,1561.2,4717.6,1558.8z"/>
				<path id="XMLID_269_" class="st0" d="M4601.1,1558.8c-6.5-4.4-8.5,4.7-19.6,26.3c-11.1,21.5-29.1,64.5-21.1,68.8
					c7.7,4.1,18.2-9.1,25.5-19.3c7-9.9,8.6-38.1,10.9-45.8C4598.8,1581.7,4604.6,1561.2,4601.1,1558.8z"/>
				<path id="XMLID_266_" class="st0" d="M4729.9,1574.4c-4.6-28.3-9.6-55.3-10.5-58.2c-7.4-26.1-31.4-45.2-59.9-45.2
					c-28.5,0-52.5,19.1-59.9,45.2c-0.8,2.9-5.9,29.8-10.5,58.2c0,0-7.1,51.7-7.2,69.1c-0.2,24.5,15.6,45.5,35,58.3
					c12.2,8,26.9,12.7,42.6,12.7c15.7,0,30.3-4.7,42.6-12.7c19.4-12.7,35.2-33.8,35-58.3C4737,1626.1,4729.9,1574.4,4729.9,1574.4z
					 M4659.5,1700.8c-35.4,0-64.3-28.8-64.3-64.3c0-23,15.2-109.3,17.5-116.7c4.6-14.5,18.3-21.3,31.3-15.1
					c9.8,4.7,15.5,17.6,15.5,17.6s5.7-12.9,15.5-17.6c13-6.2,26.7,0.6,31.3,15.1c2.3,7.4,17.5,93.6,17.5,116.7
					C4723.8,1672,4695,1700.8,4659.5,1700.8z"/>
			</g>
			<path id="XMLID_264_" class="st5" d="M4616.4,1702.2c-6.9,0.5-13,3.8-12.7,13.7h31.3h47.9h31.3c0.4-9.9-5.7-13.2-12.7-13.7
				c-12.2,8-26.9,12.7-42.6,12.7C4643.2,1714.9,4628.6,1710.2,4616.4,1702.2z"/>
			<path id="XMLID_263_" class="st5" d="M4673.8,1555.3c0,0-3.6-11.3-13.2-11.3c-9.5,0-13.2,11.3-13.2,11.3l13.2,9.5L4673.8,1555.3z
				"/>
			<path id="XMLID_262_" class="st0" d="M4681,1525c-4.6,1.1-7.5,5.8-6.4,10.4c1.1,4.6,5.8,7.5,10.4,6.4c4.6-1.1,7.5-5.8,6.4-10.4
				C4690.4,1526.7,4685.7,1523.9,4681,1525z"/>
			<path id="XMLID_261_" class="st6" d="M4687.2,1533.5c-1.1-1.8-3.1-3.1-5.7-2.7c-1.4,0.2-2.3,0.8-2.9,1.6
				c-0.2-2.3,1.3-4.5,3.7-4.9c2.4-0.4,4.7,1.3,5.1,3.7C4687.6,1532.1,4687.5,1532.8,4687.2,1533.5z"/>
			<path id="XMLID_260_" class="st0" d="M4632.8,1541.8c4.6,1.1,9.3-1.8,10.4-6.4c1.1-4.6-1.8-9.3-6.4-10.4
				c-4.7-1.1-9.3,1.8-10.4,6.4C4625.3,1536,4628.2,1540.7,4632.8,1541.8z"/>
			<path id="XMLID_259_" class="st6" d="M4630.4,1531.1c0.4-2.4,2.7-4.1,5.1-3.7c2.4,0.4,4,2.5,3.7,4.9c-0.6-0.8-1.5-1.4-2.9-1.6
				c-2.6-0.4-4.6,0.9-5.7,2.7C4630.4,1532.7,4630.3,1531.9,4630.4,1531.1z"/>
			<path id="XMLID_258_" class="st7" d="M4688.4,1533.5"/>
		</g>
	</g>
	<polygon id="XMLID_327_" class="st1" points="5881.7,1331.9 6058.2,1713.3 6432.2,1713.3 6056.6,906.3 6033.4,906.3 5657.8,1713.3 
		5705.2,1713.3 	"/>
	<g id="XMLID_313_">
		<g id="XMLID_321_">
			<path id="XMLID_326_" class="st0" d="M5941.6,1556.2c6.5-4.4,8.5,4.7,19.6,26.3c11.1,21.5,29.1,64.5,21.1,68.8
				c-7.7,4.1-18.2-9.1-25.5-19.3c-7-9.9-8.6-38.1-10.9-45.8C5943.9,1579.1,5938.2,1558.5,5941.6,1556.2z"/>
			<path id="XMLID_325_" class="st0" d="M5825.1,1556.2c-6.5-4.4-8.5,4.7-19.6,26.3c-11.1,21.5-29.1,64.5-21.1,68.8
				c7.7,4.1,18.2-9.1,25.5-19.3c7-9.9,8.6-38.1,10.9-45.8C5822.8,1579.1,5828.6,1558.5,5825.1,1556.2z"/>
			<path id="XMLID_322_" class="st0" d="M5961,1637.6c-0.8-19.8-7.1-65.8-7.1-65.8c-0.3-2.1-0.7-4.2-1-6.2
				c-4.3-25.9-8.7-49.2-9.5-51.9c-7.4-26.1-31.4-45.2-59.9-45.2c-28.5,0-52.5,19.1-59.9,45.2c-0.8,2.6-5.1,25.3-9.3,50.8
				c-0.4,2.4-0.8,4.9-1.2,7.3c0,0-6.2,45.3-7.1,65.3l0,0c-0.1,1.4-0.1,2.6-0.1,3.7c-0.2,24.5,15.5,45.5,35,58.3
				c12.2,8,26.9,12.7,42.6,12.7c15.7,0,30.3-4.7,42.6-12.7c19.4-12.7,35.2-33.8,35-58.3C5961.1,1639.9,5961.1,1638.8,5961,1637.6z
				 M5883.5,1698.1c-35.4,0-64.3-28.8-64.3-64.3c0-23,15.2-109.3,17.5-116.7c4.6-14.5,18.3-21.3,31.3-15.1
				c9.8,4.7,15.5,17.6,15.5,17.6s5.7-12.9,15.5-17.6c13-6.2,26.7,0.6,31.3,15.1c2.3,7.4,17.5,93.6,17.5,116.7
				C5947.8,1669.3,5919,1698.1,5883.5,1698.1z"/>
			<path id="XMLID_395_" class="st1" d="M5930.3,1517.2c-4.6-14.5-18.3-21.3-31.3-15.1c-9.8,4.7-15.5,17.6-15.5,17.6
				s-5.7-12.9-15.5-17.6c-13-6.2-26.7,0.6-31.3,15.1c-2.3,7.4-17.5,93.6-17.5,116.7c0,35.4,28.8,64.3,64.3,64.3
				c35.4,0,64.3-28.8,64.3-64.3C5947.8,1610.8,5932.6,1524.6,5930.3,1517.2z M5867.3,1532.7c-1.1,4.6-5.8,7.5-10.4,6.4
				c-4.7-1.1-7.5-5.8-6.4-10.4c1.1-4.7,5.8-7.5,10.4-6.4C5865.5,1523.4,5868.4,1528.1,5867.3,1532.7z M5884.6,1562.2l-13.2-9.6
				c0,0,3.6-11.3,13.2-11.3s13.2,11.3,13.2,11.3L5884.6,1562.2z M5909.1,1539.1c-4.6,1.1-9.3-1.8-10.4-6.4
				c-1.1-4.6,1.8-9.3,6.4-10.4c4.6-1.1,9.3,1.8,10.4,6.4C5916.6,1533.4,5913.7,1538,5909.1,1539.1z"/>
		</g>
		<path id="XMLID_320_" class="st5" d="M5840.4,1699.6c-6.9,0.5-13,3.8-12.7,13.7h31.3h47.9h31.3c0.4-9.9-5.7-13.2-12.7-13.7
			c-12.2,8-26.9,12.7-42.6,12.7C5867.2,1712.3,5852.6,1707.6,5840.4,1699.6z"/>
		<path id="XMLID_386_" class="st5" d="M5897.8,1552.7l-13.2,9.6l-13.2-9.6c0,0,3.6-11.3,13.2-11.3S5897.8,1552.7,5897.8,1552.7z"/>
		<path id="XMLID_390_" class="st0" d="M5909.1,1539.1c-4.6,1.1-9.3-1.8-10.4-6.4c-1.1-4.6,1.8-9.3,6.4-10.4
			c4.6-1.1,9.3,1.8,10.4,6.4C5916.6,1533.4,5913.7,1538,5909.1,1539.1z"/>
		<path id="XMLID_317_" class="st6" d="M5911.2,1530.9c-1.1-1.8-3.1-3.1-5.7-2.7c-1.4,0.2-2.3,0.8-2.9,1.6c-0.2-2.3,1.3-4.5,3.7-4.9
			c2.4-0.4,4.7,1.3,5.1,3.7C5911.6,1529.4,5911.5,1530.2,5911.2,1530.9z"/>
		<path id="XMLID_389_" class="st0" d="M5867.3,1532.7c-1.1,4.6-5.8,7.5-10.4,6.4c-4.7-1.1-7.5-5.8-6.4-10.4
			c1.1-4.7,5.8-7.5,10.4-6.4C5865.5,1523.4,5868.4,1528.1,5867.3,1532.7z"/>
		<path id="XMLID_315_" class="st6" d="M5854.4,1528.5c0.4-2.4,2.7-4.1,5.1-3.7c2.4,0.4,4,2.5,3.7,4.9c-0.6-0.8-1.5-1.4-2.9-1.6
			c-2.6-0.4-4.6,0.9-5.7,2.7C5854.4,1530,5854.3,1529.3,5854.4,1528.5z"/>
		<path id="XMLID_314_" class="st7" d="M5912.4,1530.9"/>
	</g>
	<g id="XMLID_34_">
		<g id="XMLID_48_">
			<path id="XMLID_53_" class="st0" d="M2271.5,1353.9c1.5-1,2,1.1,4.5,6.1c2.6,5,6.7,14.9,4.9,15.9c-1.8,0.9-4.2-2.1-5.9-4.5
				c-1.6-2.3-2-8.8-2.5-10.6C2272,1359.2,2270.7,1354.4,2271.5,1353.9z"/>
			<path id="XMLID_52_" class="st0" d="M2244.5,1353.9c-1.5-1-2,1.1-4.5,6.1c-2.6,5-6.7,14.9-4.9,15.9c1.8,0.9,4.2-2.1,5.9-4.5
				c1.6-2.3,2-8.8,2.5-10.6C2244,1359.2,2245.3,1354.4,2244.5,1353.9z"/>
			<path id="XMLID_49_" class="st0" d="M2274.3,1357.6c-1.1-6.6-2.2-12.8-2.4-13.5c-1.7-6-7.3-10.5-13.9-10.5
				c-6.6,0-12.2,4.4-13.9,10.5c-0.2,0.7-1.4,6.9-2.4,13.5c0,0-1.6,12-1.7,16c0,5.7,3.6,10.5,8.1,13.5c2.8,1.9,6.2,2.9,9.9,2.9
				s7-1.1,9.9-2.9c4.5-2.9,8.1-7.8,8.1-13.5C2276,1369.6,2274.3,1357.6,2274.3,1357.6z"/>
			<path id="XMLID_111_" class="st1" d="M2272.9,1372c0,8.2-6.7,14.9-14.9,14.9c-8.2,0-14.9-6.7-14.9-14.9c0-5.3,3.5-25.3,4.1-27
				c1.1-3.3,4.2-4.9,7.3-3.5c2.3,1.1,3.6,4.1,3.6,4.1s1.3-3,3.6-4.1c3-1.4,6.2,0.1,7.3,3.5C2269.4,1346.7,2272.9,1366.7,2272.9,1372
				z"/>
		</g>
		<path id="XMLID_47_" class="st5" d="M2248,1387.1c-1.6,0.1-3,0.9-2.9,3.2h7.2h11.1h7.2c0.1-2.3-1.3-3.1-2.9-3.2
			c-2.8,1.9-6.2,2.9-9.9,2.9C2254.3,1390.1,2250.9,1389,2248,1387.1z"/>
		<path id="XMLID_46_" class="st5" d="M2261.4,1353.1c0,0-0.8-2.6-3.1-2.6c-2.2,0-3.1,2.6-3.1,2.6l3.1,2.2L2261.4,1353.1z"/>
		<circle id="XMLID_44_" class="st0" cx="2263.5" cy="1348" r="2"/>
		<path id="XMLID_43_" class="st6" d="M2264.5,1348.1c-0.3-0.4-0.7-0.7-1.3-0.6c-0.3,0.1-0.5,0.2-0.7,0.4c-0.1-0.5,0.3-1,0.9-1.1
			c0.6-0.1,1.1,0.3,1.2,0.9C2264.5,1347.7,2264.5,1347.9,2264.5,1348.1z"/>
		<circle id="XMLID_42_" class="st0" cx="2252.3" cy="1348" r="2"/>
		<path id="XMLID_41_" class="st6" d="M2251.3,1347.5c0.1-0.6,0.6-0.9,1.2-0.9c0.5,0.1,0.9,0.6,0.9,1.1c-0.1-0.2-0.4-0.3-0.7-0.4
			c-0.6-0.1-1.1,0.2-1.3,0.6C2251.3,1347.9,2251.3,1347.7,2251.3,1347.5z"/>
		<path id="XMLID_36_" class="st7" d="M2264.7,1348.1"/>
	</g>
	<g id="XMLID_88_">
		<rect id="XMLID_378_" x="2205.7" y="2313" class="st8" width="176.3" height="42.8"/>
		<path id="XMLID_122_" class="st9" d="M2227.2,2318.2v23.6h-3.9v-10.3h-11.1v10.3h-3.9v-23.6h3.9v10.1h11.1v-10.1H2227.2z"/>
		<path id="XMLID_358_" class="st9" d="M2249.3,2333.9H2235c0.1,1.5,0.7,2.7,1.7,3.6c1,0.9,2.2,1.4,3.7,1.4c2.1,0,3.6-0.9,4.4-2.6
			h4.2c-0.6,1.7-1.6,3.1-3.1,4.2c-1.5,1.1-3.3,1.6-5.5,1.6c-1.8,0-3.4-0.4-4.8-1.2c-1.4-0.8-2.5-1.9-3.3-3.4
			c-0.8-1.5-1.2-3.2-1.2-5.1c0-1.9,0.4-3.6,1.2-5.1s1.9-2.6,3.3-3.4c1.4-0.8,3-1.2,4.9-1.2c1.8,0,3.3,0.4,4.7,1.2
			c1.4,0.8,2.5,1.9,3.2,3.2c0.8,1.4,1.2,3,1.2,4.8C2249.5,2332.7,2249.4,2333.4,2249.3,2333.9z M2245.4,2330.8
			c0-1.4-0.5-2.6-1.5-3.4c-1-0.9-2.2-1.3-3.7-1.3c-1.3,0-2.5,0.4-3.4,1.3c-1,0.9-1.5,2-1.7,3.5H2245.4z"/>
		<path id="XMLID_361_" class="st9" d="M2253.1,2327.4c0.8-1.5,1.8-2.6,3.2-3.4s2.8-1.2,4.5-1.2c1.5,0,2.8,0.3,3.9,0.9
			c1.1,0.6,2,1.3,2.6,2.2v-2.7h3.9v18.7h-3.9v-2.8c-0.7,0.9-1.6,1.6-2.7,2.2c-1.1,0.6-2.4,0.9-3.9,0.9c-1.6,0-3.1-0.4-4.4-1.2
			c-1.3-0.8-2.4-2-3.2-3.5c-0.8-1.5-1.2-3.2-1.2-5.1C2252,2330.5,2252.4,2328.8,2253.1,2327.4z M2266.5,2329.1
			c-0.5-1-1.2-1.7-2.1-2.2c-0.9-0.5-1.8-0.7-2.8-0.7c-1,0-1.9,0.2-2.8,0.7c-0.9,0.5-1.6,1.2-2.1,2.1s-0.8,2.1-0.8,3.4
			c0,1.3,0.3,2.4,0.8,3.4c0.5,1,1.2,1.7,2.1,2.2c0.9,0.5,1.8,0.8,2.8,0.8c1,0,1.9-0.2,2.8-0.7c0.9-0.5,1.6-1.2,2.1-2.2
			c0.5-1,0.8-2.1,0.8-3.4C2267.3,2331.2,2267,2330,2266.5,2329.1z"/>
		<path id="XMLID_364_" class="st9" d="M2276.2,2327.4c0.8-1.5,1.8-2.6,3.2-3.4s2.9-1.2,4.5-1.2c1.2,0,2.4,0.3,3.6,0.8
			c1.2,0.5,2.1,1.2,2.8,2.1v-9h3.9v25.2h-3.9v-2.8c-0.6,0.9-1.5,1.7-2.6,2.2c-1.1,0.6-2.4,0.9-3.9,0.9c-1.6,0-3.1-0.4-4.5-1.2
			c-1.3-0.8-2.4-2-3.2-3.5c-0.8-1.5-1.2-3.2-1.2-5.1C2275,2330.5,2275.4,2328.8,2276.2,2327.4z M2289.6,2329.1
			c-0.5-1-1.2-1.7-2.1-2.2c-0.9-0.5-1.8-0.7-2.8-0.7c-1,0-1.9,0.2-2.8,0.7c-0.9,0.5-1.6,1.2-2.1,2.1s-0.8,2.1-0.8,3.4
			c0,1.3,0.3,2.4,0.8,3.4c0.5,1,1.2,1.7,2.1,2.2c0.9,0.5,1.8,0.8,2.8,0.8c1,0,1.9-0.2,2.8-0.7c0.9-0.5,1.6-1.2,2.1-2.2
			c0.5-1,0.8-2.1,0.8-3.4C2290.4,2331.2,2290.1,2330,2289.6,2329.1z"/>
		<path id="XMLID_368_" class="st9" d="M2299.6,2319.9c-0.5-0.5-0.7-1.1-0.7-1.8c0-0.7,0.2-1.3,0.7-1.8c0.5-0.5,1.1-0.7,1.8-0.7
			c0.7,0,1.3,0.2,1.7,0.7c0.5,0.5,0.7,1.1,0.7,1.8c0,0.7-0.2,1.3-0.7,1.8c-0.5,0.5-1.1,0.7-1.7,0.7
			C2300.7,2320.6,2300.1,2320.4,2299.6,2319.9z M2303.3,2323.1v18.7h-3.9v-18.7H2303.3z"/>
		<path id="XMLID_371_" class="st9" d="M2321.8,2323.7c1.2,0.6,2.1,1.5,2.7,2.7s1,2.7,1,4.4v11.1h-3.8v-10.5c0-1.7-0.4-3-1.3-3.9
			c-0.8-0.9-2-1.3-3.4-1.3c-1.5,0-2.6,0.4-3.5,1.3c-0.9,0.9-1.3,2.2-1.3,3.9v10.5h-3.9v-18.7h3.9v2.1c0.6-0.8,1.4-1.4,2.4-1.8
			c1-0.4,2-0.6,3.1-0.6C2319.3,2322.8,2320.6,2323.1,2321.8,2323.7z"/>
		<path id="XMLID_373_" class="st9" d="M2341.9,2323.7c1.1,0.6,2,1.3,2.6,2.2v-2.7h3.9v19c0,1.7-0.4,3.3-1.1,4.6
			c-0.7,1.3-1.8,2.4-3.1,3.2c-1.4,0.8-3,1.2-4.9,1.2c-2.5,0-4.6-0.6-6.3-1.8s-2.6-2.8-2.9-4.8h3.8c0.3,1,0.9,1.8,1.9,2.4
			c1,0.6,2.1,0.9,3.5,0.9c1.6,0,2.8-0.5,3.8-1.4s1.4-2.3,1.4-4.2v-3.1c-0.7,0.9-1.5,1.6-2.7,2.2c-1.1,0.6-2.4,0.9-3.8,0.9
			c-1.6,0-3.1-0.4-4.5-1.2c-1.3-0.8-2.4-2-3.2-3.5c-0.8-1.5-1.2-3.2-1.2-5.1c0-1.9,0.4-3.5,1.2-5c0.8-1.5,1.8-2.6,3.2-3.4
			s2.8-1.2,4.5-1.2C2339.4,2322.8,2340.7,2323.1,2341.9,2323.7z M2343.7,2329.1c-0.5-1-1.2-1.7-2.1-2.2c-0.9-0.5-1.8-0.7-2.8-0.7
			c-1,0-1.9,0.2-2.8,0.7c-0.9,0.5-1.6,1.2-2.1,2.1s-0.8,2.1-0.8,3.4c0,1.3,0.3,2.4,0.8,3.4c0.5,1,1.2,1.7,2.1,2.2
			c0.9,0.5,1.8,0.8,2.8,0.8c1,0,1.9-0.2,2.8-0.7c0.9-0.5,1.6-1.2,2.1-2.2c0.5-1,0.8-2.1,0.8-3.4
			C2344.5,2331.2,2344.2,2330,2343.7,2329.1z"/>
		<path id="XMLID_376_" class="st9" d="M2352.5,2320.6v-3.5h7.1v24.8h-3.9v-21.3H2352.5z"/>
	</g>
	<g id="XMLID_121_">
		<rect id="XMLID_356_" x="2406.1" y="2313" class="st8" width="176.3" height="42.8"/>
		<path id="XMLID_139_" class="st9" d="M2427.6,2318.2v23.6h-3.9v-10.3h-11.1v10.3h-3.9v-23.6h3.9v10.1h11.1v-10.1H2427.6z"/>
		<path id="XMLID_337_" class="st9" d="M2449.7,2333.9h-14.3c0.1,1.5,0.7,2.7,1.7,3.6c1,0.9,2.2,1.4,3.7,1.4c2.1,0,3.6-0.9,4.4-2.6
			h4.2c-0.6,1.7-1.6,3.1-3.1,4.2c-1.5,1.1-3.3,1.6-5.5,1.6c-1.8,0-3.4-0.4-4.8-1.2c-1.4-0.8-2.5-1.9-3.3-3.4
			c-0.8-1.5-1.2-3.2-1.2-5.1c0-1.9,0.4-3.6,1.2-5.1s1.9-2.6,3.3-3.4c1.4-0.8,3-1.2,4.9-1.2c1.8,0,3.3,0.4,4.7,1.2
			c1.4,0.8,2.5,1.9,3.2,3.2c0.8,1.4,1.2,3,1.2,4.8C2449.9,2332.7,2449.8,2333.4,2449.7,2333.9z M2445.8,2330.8
			c0-1.4-0.5-2.6-1.5-3.4c-1-0.9-2.2-1.3-3.7-1.3c-1.3,0-2.5,0.4-3.4,1.3c-1,0.9-1.5,2-1.7,3.5H2445.8z"/>
		<path id="XMLID_340_" class="st9" d="M2453.5,2327.4c0.8-1.5,1.8-2.6,3.2-3.4s2.8-1.2,4.5-1.2c1.5,0,2.8,0.3,3.9,0.9
			c1.1,0.6,2,1.3,2.6,2.2v-2.7h3.9v18.7h-3.9v-2.8c-0.7,0.9-1.6,1.6-2.7,2.2c-1.1,0.6-2.4,0.9-3.9,0.9c-1.6,0-3.1-0.4-4.4-1.2
			c-1.3-0.8-2.4-2-3.2-3.5c-0.8-1.5-1.2-3.2-1.2-5.1C2452.4,2330.5,2452.8,2328.8,2453.5,2327.4z M2466.9,2329.1
			c-0.5-1-1.2-1.7-2.1-2.2c-0.9-0.5-1.8-0.7-2.8-0.7c-1,0-1.9,0.2-2.8,0.7c-0.9,0.5-1.6,1.2-2.1,2.1s-0.8,2.1-0.8,3.4
			c0,1.3,0.3,2.4,0.8,3.4c0.5,1,1.2,1.7,2.1,2.2c0.9,0.5,1.8,0.8,2.8,0.8c1,0,1.9-0.2,2.8-0.7c0.9-0.5,1.6-1.2,2.1-2.2
			c0.5-1,0.8-2.1,0.8-3.4C2467.7,2331.2,2467.4,2330,2466.9,2329.1z"/>
		<path id="XMLID_343_" class="st9" d="M2476.6,2327.4c0.8-1.5,1.8-2.6,3.2-3.4s2.9-1.2,4.5-1.2c1.2,0,2.4,0.3,3.6,0.8
			c1.2,0.5,2.1,1.2,2.8,2.1v-9h3.9v25.2h-3.9v-2.8c-0.6,0.9-1.5,1.7-2.6,2.2c-1.1,0.6-2.4,0.9-3.9,0.9c-1.6,0-3.1-0.4-4.5-1.2
			c-1.3-0.8-2.4-2-3.2-3.5c-0.8-1.5-1.2-3.2-1.2-5.1C2475.4,2330.5,2475.8,2328.8,2476.6,2327.4z M2490,2329.1
			c-0.5-1-1.2-1.7-2.1-2.2c-0.9-0.5-1.8-0.7-2.8-0.7c-1,0-1.9,0.2-2.8,0.7c-0.9,0.5-1.6,1.2-2.1,2.1s-0.8,2.1-0.8,3.4
			c0,1.3,0.3,2.4,0.8,3.4c0.5,1,1.2,1.7,2.1,2.2c0.9,0.5,1.8,0.8,2.8,0.8c1,0,1.9-0.2,2.8-0.7c0.9-0.5,1.6-1.2,2.1-2.2
			c0.5-1,0.8-2.1,0.8-3.4C2490.8,2331.2,2490.5,2330,2490,2329.1z"/>
		<path id="XMLID_346_" class="st9" d="M2500,2319.9c-0.5-0.5-0.7-1.1-0.7-1.8c0-0.7,0.2-1.3,0.7-1.8c0.5-0.5,1.1-0.7,1.8-0.7
			c0.7,0,1.3,0.2,1.7,0.7c0.5,0.5,0.7,1.1,0.7,1.8c0,0.7-0.2,1.3-0.7,1.8c-0.5,0.5-1.1,0.7-1.7,0.7
			C2501.1,2320.6,2500.5,2320.4,2500,2319.9z M2503.7,2323.1v18.7h-3.9v-18.7H2503.7z"/>
		<path id="XMLID_349_" class="st9" d="M2522.2,2323.7c1.2,0.6,2.1,1.5,2.7,2.7s1,2.7,1,4.4v11.1h-3.8v-10.5c0-1.7-0.4-3-1.3-3.9
			c-0.8-0.9-2-1.3-3.4-1.3c-1.5,0-2.6,0.4-3.5,1.3c-0.9,0.9-1.3,2.2-1.3,3.9v10.5h-3.9v-18.7h3.9v2.1c0.6-0.8,1.4-1.4,2.4-1.8
			c1-0.4,2-0.6,3.1-0.6C2519.7,2322.8,2521,2323.1,2522.2,2323.7z"/>
		<path id="XMLID_351_" class="st9" d="M2542.3,2323.7c1.1,0.6,2,1.3,2.6,2.2v-2.7h3.9v19c0,1.7-0.4,3.3-1.1,4.6
			c-0.7,1.3-1.8,2.4-3.1,3.2c-1.4,0.8-3,1.2-4.9,1.2c-2.5,0-4.6-0.6-6.3-1.8s-2.6-2.8-2.9-4.8h3.8c0.3,1,0.9,1.8,1.9,2.4
			c1,0.6,2.1,0.9,3.5,0.9c1.6,0,2.8-0.5,3.8-1.4s1.4-2.3,1.4-4.2v-3.1c-0.7,0.9-1.5,1.6-2.7,2.2c-1.1,0.6-2.4,0.9-3.8,0.9
			c-1.6,0-3.1-0.4-4.5-1.2c-1.3-0.8-2.4-2-3.2-3.5c-0.8-1.5-1.2-3.2-1.2-5.1c0-1.9,0.4-3.5,1.2-5c0.8-1.5,1.8-2.6,3.2-3.4
			s2.8-1.2,4.5-1.2C2539.8,2322.8,2541.1,2323.1,2542.3,2323.7z M2544.1,2329.1c-0.5-1-1.2-1.7-2.1-2.2c-0.9-0.5-1.8-0.7-2.8-0.7
			c-1,0-1.9,0.2-2.8,0.7c-0.9,0.5-1.6,1.2-2.1,2.1s-0.8,2.1-0.8,3.4c0,1.3,0.3,2.4,0.8,3.4c0.5,1,1.2,1.7,2.1,2.2
			c0.9,0.5,1.8,0.8,2.8,0.8c1,0,1.9-0.2,2.8-0.7c0.9-0.5,1.6-1.2,2.1-2.2c0.5-1,0.8-2.1,0.8-3.4
			C2544.9,2331.2,2544.6,2330,2544.1,2329.1z"/>
		<path id="XMLID_354_" class="st9" d="M2552.9,2320.6v-3.5h7.1v24.8h-3.9v-21.3H2552.9z"/>
	</g>
	<g id="XMLID_119_">
		<rect id="XMLID_335_" x="2205.7" y="2248.5" class="st8" width="176.3" height="42.8"/>
		<path id="XMLID_143_" class="st9" d="M2226.5,2254.6v3.7h-7.3v23.9h-4.5v-23.9h-7.4v-3.7H2226.5z"/>
		<path id="XMLID_319_" class="st9" d="M2231.3,2256.6c-0.6-0.6-0.8-1.2-0.8-2.1s0.3-1.5,0.8-2.1c0.6-0.6,1.2-0.8,2.1-0.8
			c0.8,0,1.5,0.3,2,0.8c0.6,0.6,0.8,1.2,0.8,2.1s-0.3,1.5-0.8,2.1c-0.6,0.6-1.2,0.8-2,0.8
			C2232.6,2257.4,2231.9,2257.1,2231.3,2256.6z M2235.6,2260.3v21.9h-4.5v-21.9H2235.6z"/>
		<path id="XMLID_328_" class="st9" d="M2246.9,2264v12.1c0,0.8,0.2,1.4,0.6,1.8c0.4,0.4,1,0.5,2,0.5h2.8v3.8h-3.6
			c-2,0-3.6-0.5-4.7-1.4c-1.1-1-1.6-2.5-1.6-4.6V2264h-2.6v-3.7h2.6v-5.4h4.6v5.4h5.3v3.7H2246.9z"/>
		<path id="XMLID_330_" class="st9" d="M2260.9,2252.8v29.4h-4.5v-29.4H2260.9z"/>
		<path id="XMLID_332_" class="st9" d="M2286.7,2272.9H2270c0.1,1.7,0.8,3.1,1.9,4.2c1.2,1.1,2.6,1.6,4.3,1.6c2.4,0,4.2-1,5.2-3.1
			h4.9c-0.7,2-1.9,3.7-3.6,4.9c-1.7,1.3-3.9,1.9-6.4,1.9c-2.1,0-4-0.5-5.6-1.4c-1.7-0.9-3-2.3-3.9-4c-0.9-1.7-1.4-3.7-1.4-5.9
			c0-2.2,0.5-4.2,1.4-5.9c0.9-1.7,2.2-3,3.8-3.9c1.7-0.9,3.6-1.4,5.7-1.4c2.1,0,3.9,0.5,5.5,1.3c1.6,0.9,2.9,2.2,3.8,3.8
			c0.9,1.6,1.3,3.5,1.3,5.6C2286.9,2271.5,2286.8,2272.3,2286.7,2272.9z M2282.1,2269.3c0-1.7-0.6-3-1.8-4c-1.2-1-2.6-1.5-4.3-1.5
			c-1.6,0-2.9,0.5-4,1.5c-1.1,1-1.8,2.3-2,4H2282.1z"/>
	</g>
</g>
<g id="Logo_x5F_SVG">
	<g id="XMLID_138_">
		<polygon id="XMLID_176_" class="st0" points="69.6,99 110.5,187.3 197.1,187.3 110.1,0.3 104.8,0.3 17.7,187.3 28.7,187.3 		"/>
		<path id="XMLID_173_" class="st0" d="M369.1,187.4l-47.7-66.1c-6.3,1.3-13.6,1.9-22,1.9h-58.1v64.3h-5.4V0h63.5
			c23,0,41.1,5.4,54.1,16.2c13,10.8,19.5,25.9,19.5,45.4c0,15-4,27.5-12,37.6c-8,10.1-19.4,17-34,20.8l48.7,67.5H369.1z M300,118.1
			c21.8,0,38.5-4.9,50.2-14.7c11.7-9.8,17.5-23.7,17.5-41.8c0-18-5.8-32-17.5-41.8C338.6,10,321.8,5.1,300,5.1h-58.6v113H300z"/>
		<path id="XMLID_171_" class="st0" d="M562,0v187.4h-5.4V94.8H420.1v92.6h-5.4V0h5.4v89.7h136.6V0H562z"/>
		<path id="XMLID_169_" class="st0" d="M600.9,0h5.4v187.4h-5.4V0z"/>
		<path id="XMLID_167_" class="st0" d="M714.8,5.1h-69.6V0h144.6v5.1h-69.6v182.3h-5.4V5.1z"/>
		<path id="XMLID_165_" class="st0" d="M953.5,182.3v5.1H828.7V0h120.8v5.1H834v84.6h103.4v5.1H834v87.6H953.5z"/>
		<path id="XMLID_163_" class="st0" d="M1138.6,187.4l-69.9-92.9l-69.9,92.9h-6.4l73.1-96.9L997.7,0h6.7l64.5,86.5L1133.5,0h6.4
			l-67.7,90.5l73.1,96.9H1138.6z"/>
		<path id="XMLID_161_" class="st0" d="M1253.8,5.1h-69.6V0h144.6v5.1h-69.6v182.3h-5.4V5.1z"/>
		<path id="XMLID_159_" class="st0" d="M1386.7,168.1c-12.7-13.4-19-33.1-19-59.2V0h5.4v108.7c0,24.6,5.8,43.2,17.3,55.7
			c11.5,12.5,28.1,18.7,49.7,18.7c21.6,0,38.2-6.2,49.7-18.7c11.5-12.5,17.3-31.1,17.3-55.7V0h5.4v109c0,26.1-6.3,45.8-19,59.2
			c-12.7,13.4-30.4,20.1-53.3,20.1C1417.1,188.2,1399.4,181.5,1386.7,168.1z"/>
		<path id="XMLID_156_" class="st0" d="M1684.3,187.4l-47.7-66.1c-6.3,1.3-13.6,1.9-22,1.9h-58.1v64.3h-5.4V0h63.5
			c23,0,41.1,5.4,54.1,16.2c13,10.8,19.5,25.9,19.5,45.4c0,15-4,27.5-12,37.6c-8,10.1-19.4,17-34,20.8l48.7,67.5H1684.3z
			 M1615.2,118.1c21.8,0,38.5-4.9,50.2-14.7c11.7-9.8,17.5-23.7,17.5-41.8c0-18-5.8-32-17.5-41.8c-11.7-9.8-28.4-14.7-50.2-14.7
			h-58.6v113H1615.2z"/>
		<path id="XMLID_153_" class="st0" d="M1876.9,130.9h-114.6l-26.2,56.5h-6.2l87-187.4h5.4l87,187.4h-6.2L1876.9,130.9z
			 M1874.5,125.8L1819.6,7.2l-54.9,118.6H1874.5z"/>
		<g id="Pinguin">
			<g id="XMLID_147_">
				<path id="XMLID_152_" class="st0" d="M83.5,151c1.5-1,2,1.1,4.5,6.1c2.6,5,6.7,14.9,4.9,15.9c-1.8,0.9-4.2-2.1-5.9-4.5
					c-1.6-2.3-2-8.8-2.5-10.6C84,156.3,82.7,151.6,83.5,151z"/>
				<path id="XMLID_151_" class="st0" d="M56.5,151c-1.5-1-2,1.1-4.5,6.1c-2.6,5-6.7,14.9-4.9,15.9c1.8,0.9,4.2-2.1,5.9-4.5
					c1.6-2.3,2-8.8,2.5-10.6C56,156.3,57.3,151.6,56.5,151z"/>
				<path id="XMLID_148_" class="st0" d="M86.3,154.6c-1.1-6.6-2.2-12.8-2.4-13.5c-1.7-6-7.3-10.5-13.9-10.5
					c-6.6,0-12.2,4.4-13.9,10.5c-0.2,0.7-1.4,6.9-2.4,13.5c0,0-1.6,12-1.7,16c0,5.7,3.6,10.5,8.1,13.5c2.8,1.9,6.2,2.9,9.9,2.9
					c3.6,0,7-1.1,9.9-2.9c4.5-2.9,8.1-7.8,8.1-13.5C88,166.6,86.3,154.6,86.3,154.6z M70,183.9c-8.2,0-14.9-6.7-14.9-14.9
					c0-5.3,3.5-25.3,4.1-27c1.1-3.4,4.2-4.9,7.2-3.5c2.3,1.1,3.6,4.1,3.6,4.1s1.3-3,3.6-4.1c3-1.4,6.2,0.1,7.2,3.5
					c0.5,1.7,4.1,21.7,4.1,27C84.9,177.2,78.3,183.9,70,183.9z"/>
			</g>
			<path id="XMLID_146_" class="st5" d="M60,184.2c-1.6,0.1-3,0.9-2.9,3.2h7.2h11.1h7.2c0.1-2.3-1.3-3.1-2.9-3.2
				c-2.8,1.9-6.2,2.9-9.9,2.9C66.3,187.2,62.9,186.1,60,184.2z"/>
			<path id="XMLID_145_" class="st5" d="M73.1,150.2c0,0-0.8-2.6-3.1-2.6c-2.2,0-3.1,2.6-3.1,2.6l3.1,2.2L73.1,150.2z"/>
			<path id="XMLID_294_" class="st0" d="M77.4,144.7c-0.3-1.1-1.3-1.7-2.4-1.5c-1.1,0.3-1.7,1.3-1.5,2.4c0.3,1.1,1.3,1.7,2.4,1.5
				C77,146.8,77.7,145.7,77.4,144.7z M76.5,145.2c-0.3-0.4-0.7-0.7-1.3-0.6c-0.3,0.1-0.5,0.2-0.7,0.4c-0.1-0.5,0.3-1,0.9-1.1
				c0.6-0.1,1.1,0.3,1.2,0.9C76.5,144.8,76.5,145,76.5,145.2z"/>
			<path id="XMLID_293_" class="st0" d="M64.8,143.2c-1.1-0.3-2.2,0.4-2.4,1.5c-0.3,1.1,0.4,2.2,1.5,2.4c1.1,0.3,2.2-0.4,2.4-1.5
				C66.5,144.5,65.9,143.4,64.8,143.2z M64.7,144.5c-0.6-0.1-1.1,0.2-1.3,0.6c-0.1-0.2-0.1-0.3-0.1-0.5c0.1-0.6,0.6-0.9,1.2-0.9
				c0.5,0.1,0.9,0.6,0.9,1.1C65.2,144.7,65,144.6,64.7,144.5z"/>
			<path id="XMLID_140_" class="st4" d="M76.7,145.2"/>
		</g>
	</g>
	<g id="masca">
		<line id="XMLID_296_" class="st10" x1="78.6" y1="157.1" x2="86.1" y2="153.4"/>
		<line id="XMLID_298_" class="st10" x1="78.6" y1="150" x2="85.6" y2="150.5"/>
		<line id="XMLID_300_" class="st10" x1="61.1" y1="157.1" x2="54" y2="153.2"/>
		<line id="XMLID_299_" class="st10" x1="61.1" y1="150" x2="54.4" y2="150.5"/>
		<polygon id="XMLID_144_" class="st11" points="79,149.6 70,147.1 70,159.3 79,157.3 		"/>
		<polygon id="XMLID_141_" class="st12" points="61,149.6 70,147.1 70,159.3 61,157.3 		"/>
	</g>
	<g id="XMLID_117_">
	</g>
	<g id="XMLID_120_">
	</g>
	<g id="XMLID_379_">
	</g>
	<g id="XMLID_380_">
	</g>
	<g id="XMLID_381_">
	</g>
	<g id="XMLID_382_">
	</g>
	<g id="XMLID_383_">
	</g>
	<g id="XMLID_384_">
	</g>
	<g id="XMLID_385_">
	</g>
	<g id="XMLID_387_">
	</g>
	<g id="XMLID_388_">
	</g>
	<g id="XMLID_391_">
	</g>
	<g id="XMLID_401_">
	</g>
	<g id="XMLID_402_">
	</g>
	<g id="XMLID_403_">
	</g>
</g>
</svg>
