<?xml version="1.0" encoding="utf-8"?>
<!-- Generator: Adobe Illustrator 24.0.1, SVG Export Plug-In . SVG Version: 6.00 Build 0)  -->
<svg version="1.0" xmlns="http://www.w3.org/2000/svg" xmlns:xlink="http://www.w3.org/1999/xlink" x="0px" y="0px"
	 viewBox="0 0 256 256" style="enable-background:new 0 0 256 256;" xml:space="preserve">
<style type="text/css">
	.st0{fill:#24292C;}
	.st1{fill:#EEEFE9;}
	.st2{fill:url(#XMLID_320_);}
	.st3{fill:#24292C;stroke:#FFFFFF;stroke-linecap:round;stroke-miterlimit:10;}
	.st4{fill:#F39F22;}
	.st5{fill:#FFFFFF;}
	.st6{fill:none;stroke:#FFFFFF;stroke-linecap:round;stroke-miterlimit:10;}
	.st7{fill:url(#XMLID_321_);}
	.st8{fill:none;}
	.st9{fill:#3F3F3D;}
	.st10{fill:none;stroke:#EEEFE9;stroke-width:0.2835;stroke-linecap:round;stroke-miterlimit:10;}
	.st11{fill:#BDCCD4;}
	.st12{fill:#B5CCD4;}
	.st13{fill:url(#XMLID_322_);}
	.st14{fill:url(#XMLID_323_);}
</style>
<g id="Layer_3">
</g>
<g id="Capa_1">
</g>
<g id="Layer_1">
</g>
<g id="Logo_Text">
</g>
<g id="Logo_Patrat">
	<g>
		<polygon id="XMLID_176_" class="st0" points="75.158,135.052 131.127,256 249.735,256 130.608,0 123.277,0 4.149,256 19.19,256 		
			"/>
		<g>
			<g id="Pinguin">
				<g id="XMLID_147_">
					<path id="XMLID_152_" class="st0" d="M94.164,206.168c2.046-1.385,2.708,1.506,6.216,8.332
						c3.508,6.826,9.219,20.458,6.677,21.809c-2.437,1.296-5.773-2.882-8.076-6.111c-2.235-3.132-2.742-12.079-3.448-14.534
						C94.891,213.439,93.064,206.913,94.164,206.168z"/>
					<path id="XMLID_151_" class="st0" d="M57.206,206.168c-2.046-1.385-2.708,1.506-6.216,8.332s-9.219,20.458-6.677,21.809
						c2.437,1.296,5.773-2.882,8.076-6.111c2.235-3.132,2.742-12.079,3.448-14.534C56.478,213.439,58.305,206.913,57.206,206.168z"
						/>
					<path id="XMLID_148_" class="st0" d="M98.055,211.112c-1.445-8.979-3.059-17.522-3.321-18.44
						c-2.351-8.274-9.962-14.335-18.991-14.335c-9.029,0-16.64,6.061-18.991,14.335c-0.261,0.918-1.875,9.461-3.32,18.44
						c0,0-2.239,16.4-2.281,21.907c-0.06,7.765,4.933,14.441,11.094,18.471c3.881,2.538,8.516,4.018,13.499,4.018
						c4.983,0,9.618-1.481,13.499-4.018c6.161-4.031,11.154-10.706,11.094-18.471C100.293,227.512,98.055,211.112,98.055,211.112z
						 M75.743,251.19c-11.236,0-20.379-9.142-20.379-20.379c0-7.308,4.807-34.662,5.551-36.999c1.466-4.596,5.796-6.756,9.925-4.777
						c3.108,1.491,4.903,5.579,4.903,5.579s1.795-4.088,4.903-5.579c4.129-1.979,8.458,0.181,9.925,4.777
						c0.744,2.336,5.551,29.69,5.551,36.999C96.122,242.049,86.979,251.19,75.743,251.19z"/>
				</g>
				<path id="XMLID_146_" class="st4" d="M62.055,251.647c-2.192,0.167-4.133,1.213-4.012,4.353h9.921h15.181h9.921
					c0.12-3.14-1.82-4.186-4.013-4.353c-3.879,2.539-8.515,4.02-13.498,4.02C70.571,255.668,65.936,254.187,62.055,251.647z"/>
				<path id="XMLID_145_" class="st4" d="M79.862,205.057c0,0-1.153-3.576-4.178-3.576c-3.025,0-4.178,3.576-4.178,3.576
					l4.178,3.026L79.862,205.057z"/>
				<path id="XMLID_294_" class="st0" d="M85.867,197.467c-0.352-1.473-1.831-2.382-3.305-2.031
					c-1.474,0.35-2.384,1.831-2.031,3.305c0.35,1.473,1.831,2.382,3.303,2.032C85.308,200.421,86.218,198.942,85.867,197.467z
					 M84.52,198.158c-0.345-0.569-0.986-0.982-1.802-0.849c-0.431,0.072-0.732,0.263-0.924,0.516
					c-0.078-0.742,0.428-1.426,1.174-1.549c0.771-0.127,1.499,0.396,1.626,1.167C84.635,197.693,84.602,197.936,84.52,198.158z"/>
				<path id="XMLID_293_" class="st0" d="M68.547,195.436c-1.475-0.351-2.954,0.558-3.305,2.031
					c-0.352,1.475,0.559,2.954,2.033,3.305c1.474,0.351,2.954-0.559,3.303-2.032C70.93,197.266,70.021,195.786,68.547,195.436z
					 M68.391,197.255c-0.816-0.133-1.455,0.279-1.803,0.849c-0.08-0.221-0.115-0.465-0.073-0.714
					c0.127-0.771,0.854-1.294,1.627-1.167c0.746,0.122,1.253,0.806,1.172,1.549C69.123,197.518,68.823,197.327,68.391,197.255z"/>
			</g>
			<g id="masca">
				<line id="XMLID_296_" class="st10" x1="87.428" y1="214.425" x2="97.778" y2="209.412"/>
				<line id="XMLID_298_" class="st10" x1="87.428" y1="204.782" x2="97.109" y2="205.421"/>
				<line id="XMLID_300_" class="st10" x1="63.554" y1="214.425" x2="53.747" y2="209.176"/>
				<line id="XMLID_299_" class="st10" x1="63.554" y1="204.782" x2="54.377" y2="205.421"/>
				<polygon id="XMLID_144_" class="st11" points="88.005,204.221 75.685,200.847 75.685,217.505 88.005,214.767 				"/>
				<polygon id="XMLID_141_" class="st12" points="63.364,204.221 75.685,200.847 75.685,217.505 63.364,214.767 				"/>
			</g>
		</g>
	</g>
</g>
</svg>
