<?xml version="1.0" encoding="utf-8"?>
<!-- Generator: Adobe Illustrator 24.0.1, SVG Export Plug-In . SVG Version: 6.00 Build 0)  -->
<svg version="1.0" xmlns="http://www.w3.org/2000/svg" xmlns:xlink="http://www.w3.org/1999/xlink" x="0px" y="0px"
	 viewBox="0 0 2600 256" style="enable-background:new 0 0 2600 256;" xml:space="preserve">
<style type="text/css">
	.st0{fill:#24292C;}
	.st1{fill:#F39F22;}
	.st2{fill:#24292C;stroke:#FFFFFF;stroke-linecap:round;stroke-miterlimit:10;}
	.st3{fill:none;stroke:#EEEFE9;stroke-width:0.2835;stroke-linecap:round;stroke-miterlimit:10;}
	.st4{fill:#BDCCD4;}
	.st5{fill:#B5CCD4;}
	.st6{fill:#EEEFE9;}
	.st7{fill:url(#XMLID_320_);}
	.st8{fill:#FFFFFF;}
	.st9{fill:none;stroke:#FFFFFF;stroke-linecap:round;stroke-miterlimit:10;}
	.st10{fill:url(#XMLID_321_);}
	.st11{fill:none;}
	.st12{fill:#3F3F3D;}
	.st13{fill:url(#XMLID_322_);}
	.st14{fill:url(#XMLID_323_);}
</style>
<symbol  id="Logo_Negru" viewBox="-122.793 -128 245.586 256">
	<polygon id="XMLID_251_" class="st0" points="-51.783,-7.052 4.185,-128 122.793,-128 3.666,128 -3.665,128 -122.793,-128 
		-107.752,-128 	"/>
	<g>
		<g id="Pinguin_4_">
			<g id="XMLID_245_">
				<path id="XMLID_250_" class="st0" d="M-32.778-78.168c2.046,1.385,2.708-1.506,6.216-8.332s9.219-20.458,6.677-21.809
					c-2.437-1.296-5.773,2.882-8.076,6.111c-2.235,3.132-2.742,12.079-3.448,14.534C-32.05-85.439-33.878-78.913-32.778-78.168z"/>
				<path id="XMLID_249_" class="st0" d="M-69.736-78.168c-2.046,1.385-2.708-1.506-6.216-8.332
					c-3.508-6.826-9.219-20.458-6.677-21.809c2.437-1.296,5.773,2.882,8.076,6.111c2.235,3.132,2.742,12.079,3.448,14.534
					C-70.464-85.439-68.636-78.913-69.736-78.168z"/>
				<path id="XMLID_246_" class="st0" d="M-28.887-83.112c-1.445,8.979-3.059,17.522-3.321,18.44
					c-2.351,8.274-9.962,14.335-18.991,14.335c-9.029,0-16.64-6.061-18.991-14.335c-0.261-0.918-1.875-9.461-3.32-18.44
					c0,0-2.239-16.4-2.281-21.907c-0.06-7.765,4.933-14.441,11.094-18.471c3.881-2.538,8.516-4.018,13.499-4.018
					c4.983,0,9.618,1.481,13.499,4.018c6.161,4.031,11.154,10.706,11.094,18.471C-26.649-99.512-28.887-83.112-28.887-83.112z
					 M-51.199-123.19c-11.236,0-20.379,9.142-20.379,20.379c0,7.308,4.807,34.662,5.551,36.999c1.466,4.596,5.796,6.756,9.925,4.777
					c3.108-1.491,4.903-5.579,4.903-5.579s1.795,4.088,4.903,5.579c4.129,1.979,8.458-0.181,9.925-4.777
					c0.744-2.336,5.551-29.69,5.551-36.999C-30.82-114.049-39.963-123.19-51.199-123.19z"/>
			</g>
			<path id="XMLID_244_" class="st1" d="M-64.887-123.647c-2.192-0.167-4.133-1.213-4.012-4.353h9.921h15.181h9.921
				c0.12,3.14-1.82,4.186-4.013,4.353c-3.879-2.539-8.515-4.02-13.498-4.02C-56.371-127.668-61.006-126.187-64.887-123.647z"/>
			<path id="XMLID_243_" class="st1" d="M-47.08-77.057c0,0-1.153,3.576-4.178,3.576c-3.025,0-4.178-3.576-4.178-3.576l4.178-3.026
				L-47.08-77.057z"/>
			<path id="XMLID_240_" class="st0" d="M-41.075-69.467c-0.352,1.473-1.831,2.382-3.305,2.032c-1.474-0.35-2.384-1.831-2.031-3.305
				c0.35-1.473,1.831-2.382,3.303-2.032C-41.634-72.421-40.724-70.942-41.075-69.467z M-42.422-70.158
				c-0.345,0.569-0.986,0.982-1.802,0.849c-0.431-0.072-0.732-0.263-0.924-0.516c-0.078,0.742,0.428,1.426,1.174,1.549
				c0.771,0.127,1.499-0.396,1.626-1.167C-42.307-69.693-42.34-69.936-42.422-70.158z"/>
			<path id="XMLID_237_" class="st0" d="M-58.395-67.435c-1.475,0.351-2.954-0.558-3.305-2.032
				c-0.352-1.475,0.559-2.954,2.033-3.305c1.474-0.351,2.954,0.559,3.303,2.032C-56.012-69.266-56.921-67.786-58.395-67.435z
				 M-58.551-69.255c-0.816,0.133-1.455-0.279-1.803-0.849c-0.08,0.221-0.115,0.465-0.073,0.714
				c0.127,0.771,0.854,1.294,1.627,1.167c0.746-0.122,1.253-0.806,1.172-1.549C-57.819-69.518-58.119-69.327-58.551-69.255z"/>
			<path id="XMLID_236_" class="st2" d="M-42.056-70.158"/>
		</g>
		<g id="masca_4_">
			<line id="XMLID_235_" class="st3" x1="-39.514" y1="-86.425" x2="-29.164" y2="-81.412"/>
			<line id="XMLID_234_" class="st3" x1="-39.514" y1="-76.782" x2="-29.833" y2="-77.421"/>
			<line id="XMLID_233_" class="st3" x1="-63.388" y1="-86.425" x2="-73.195" y2="-81.176"/>
			<line id="XMLID_232_" class="st3" x1="-63.388" y1="-76.782" x2="-72.565" y2="-77.421"/>
			<polygon id="XMLID_231_" class="st4" points="-38.936,-76.221 -51.257,-72.847 -51.257,-89.505 -38.936,-86.767 			"/>
			<polygon id="XMLID_230_" class="st5" points="-63.578,-76.221 -51.257,-72.847 -51.257,-89.505 -63.578,-86.767 			"/>
		</g>
	</g>
</symbol>
<g id="Layer_3">
</g>
<g id="Capa_1">
</g>
<g id="Layer_1">
</g>
<g id="Logo_Text">
</g>
<g id="Logo_Patrat">
	<g>
		<path class="st0" d="M471.72,256l-61.074-85.577c-9.023,1.223-17.314,1.829-24.869,1.829h-73.142V256h-18.652V0h91.794
			c32.183,0,57.418,7.623,75.703,22.857c18.285,15.24,27.429,36.389,27.429,63.451c0,20.24-5.183,37.246-15.543,51.017
			c-10.365,13.778-25.177,23.47-44.434,29.075l64,89.6H471.72z M385.777,155.795c27.303,0,48.149-6.035,62.538-18.104
			c14.383-12.068,21.577-29.194,21.577-51.382c0-22.183-7.194-39.314-21.577-51.382c-14.389-12.069-35.234-18.103-62.538-18.103
			h-73.142v138.972H385.777z"/>
		<path class="st0" d="M765.748,0v256h-18.651V134.217H575.943V256h-18.652V0h18.652v117.761h171.154V0H765.748z"/>
		<path class="st0" d="M854.981,0h18.652v256h-18.652V0z"/>
		<path class="st0" d="M1011.872,16.823h-92.16V0h202.971v16.823h-92.16V256h-18.651V16.823z"/>
		<path class="st0" d="M1345.398,239.177V256h-176.64V0h171.154v16.823H1187.41v100.937h136.411v16.456H1187.41v104.959H1345.398z"
			/>
		<path class="st0" d="M1570.68,256l-88.137-118.492L1394.771,256h-21.943l98.377-132.023L1379.777,0h21.943l81.554,110.081
			L1564.827,0h20.847l-91.428,123.612L1592.622,256H1570.68z"/>
		<path class="st0" d="M1682.954,16.823h-92.159V0h202.97v16.823h-92.159V256h-18.651V16.823z"/>
		<path class="st0" d="M1859.409,227.84c-17.92-18.772-26.879-46.201-26.879-82.286V0h18.651v144.823
			c0,31.451,7.189,54.983,21.578,70.583c14.382,15.605,35.227,23.405,62.536,23.405c27.063,0,47.783-7.8,62.172-23.405
			c14.382-15.6,21.576-39.132,21.576-70.583V0h18.652v145.554c0,36.085-9.023,63.514-27.063,82.286
			c-18.045,18.776-43.28,28.16-75.703,28.16C1902.5,256,1877.328,246.617,1859.409,227.84z"/>
		<path class="st0" d="M2302.472,256l-61.074-85.577c-9.023,1.223-17.314,1.829-24.869,1.829h-73.143V256h-18.651V0h91.794
			c32.182,0,57.416,7.623,75.703,22.857c18.285,15.24,27.427,36.389,27.427,63.451c0,20.24-5.183,37.246-15.543,51.017
			c-10.365,13.778-25.177,23.47-44.434,29.075l64,89.6H2302.472z M2216.529,155.795c27.302,0,48.149-6.035,62.536-18.104
			c14.383-12.068,21.578-29.194,21.578-51.382c0-22.183-7.195-39.314-21.578-51.382c-14.388-12.069-35.234-18.103-62.536-18.103
			h-73.143v138.972H2216.529z"/>
		<path class="st0" d="M2546.397,183.955h-148.481L2365.369,256h-20.114L2463.014,0h18.651l117.761,256h-20.114L2546.397,183.955z
			 M2539.448,168.228L2472.157,20.48l-66.927,147.748H2539.448z"/>
	</g>
	
		<use xlink:href="#Logo_Negru"  width="245.586" height="256" x="-122.793" y="-128" transform="matrix(1 0 0 -1 134.6446 128)" style="overflow:visible;"/>
</g>
</svg>
