<?xml version="1.0" encoding="utf-8"?>
<!-- Generator: Adobe Illustrator 24.0.1, SVG Export Plug-In . SVG Version: 6.00 Build 0)  -->
<svg version="1.0" xmlns="http://www.w3.org/2000/svg" xmlns:xlink="http://www.w3.org/1999/xlink" x="0px" y="0px"
	 viewBox="0 0 256 256" style="enable-background:new 0 0 256 256;" xml:space="preserve">
<style type="text/css">
	.st0{fill:url(#XMLID_341_);}
	.st1{fill:#EEEFE9;}
	.st2{fill:#24292C;}
	.st3{fill:#F39F22;}
	.st4{fill:#24292C;stroke:#FFFFFF;stroke-linecap:round;stroke-miterlimit:10;}
	.st5{fill:none;stroke:#EEEFE9;stroke-width:0.2835;stroke-linecap:round;stroke-miterlimit:10;}
	.st6{fill:#BDCCD4;}
	.st7{fill:#B5CCD4;}
	.st8{fill:url(#XMLID_320_);}
	.st9{fill:#FFFFFF;}
	.st10{fill:none;stroke:#FFFFFF;stroke-linecap:round;stroke-miterlimit:10;}
	.st11{fill:url(#XMLID_321_);}
	.st12{fill:none;}
	.st13{fill:#3F3F3D;}
</style>
<symbol  id="Logoalb" viewBox="-122.793 -128 245.586 256">
	<linearGradient id="XMLID_320_" gradientUnits="userSpaceOnUse" x1="-51.7834" y1="-7.0519" x2="-51.7834" y2="-128">
		<stop  offset="0" style="stop-color:#FFCC5B"/>
		<stop  offset="0.2041" style="stop-color:#FCCA5B;stop-opacity:0.7959"/>
		<stop  offset="0.3564" style="stop-color:#F2C45C;stop-opacity:0.6436"/>
		<stop  offset="0.492" style="stop-color:#E2BA5D;stop-opacity:0.508"/>
		<stop  offset="0.6178" style="stop-color:#CCAB5E;stop-opacity:0.3822"/>
		<stop  offset="0.7368" style="stop-color:#AE9860;stop-opacity:0.2632"/>
		<stop  offset="0.8508" style="stop-color:#8A8162;stop-opacity:0.1492"/>
		<stop  offset="0.9588" style="stop-color:#606665;stop-opacity:0.0412"/>
		<stop  offset="1" style="stop-color:#4E5A66;stop-opacity:0"/>
	</linearGradient>
	<polygon id="XMLID_228_" class="st8" points="-107.752,-128 4.185,-128 -51.783,-7.052 	"/>
	<g>
		<g>
			<polygon id="XMLID_164_" class="st1" points="-51.783,-7.052 4.185,-128 122.793,-128 3.666,128 -3.665,128 -122.793,-128 
				-107.752,-128 			"/>
			<g>
				<g id="Pinguin_2_">
					<g id="XMLID_158_">
						<path class="st1" d="M-30.822-102.813c0-11.24-9.14-20.38-20.38-20.38c-11.23,0-20.38,9.14-20.38,20.38
							c0,7.31,4.81,34.66,5.56,37c1.46,4.6,5.79,6.76,9.92,4.78c3.11-1.49,4.9-5.58,4.9-5.58s1.8,4.09,4.91,5.58
							c4.13,1.98,8.45-0.18,9.92-4.78C-35.632-68.154-30.822-95.503-30.822-102.813z"/>
						<path id="XMLID_163_" class="st2" d="M-32.778-78.168c2.046,1.385,2.708-1.506,6.216-8.332s9.219-20.458,6.677-21.809
							c-2.437-1.296-5.773,2.882-8.076,6.111c-2.235,3.132-2.742,12.079-3.448,14.534C-32.05-85.439-33.878-78.913-32.778-78.168z"
							/>
						<path id="XMLID_162_" class="st2" d="M-69.736-78.168c-2.046,1.385-2.708-1.506-6.216-8.332
							c-3.508-6.826-9.219-20.458-6.677-21.809c2.437-1.296,5.773,2.882,8.076,6.111c2.235,3.132,2.742,12.079,3.448,14.534
							C-70.464-85.439-68.636-78.913-69.736-78.168z"/>
						<path id="XMLID_159_" class="st2" d="M-26.632-103.993c-0.26,6.26-2.26,20.88-2.26,20.88c-0.11,0.66-0.21,1.32-0.32,1.97
							c-1.35,8.22-2.75,15.62-3,16.47c-2.35,8.28-9.96,14.34-18.99,14.34c-9.03,0-16.64-6.06-18.99-14.34
							c-0.24-0.84-1.6-8.04-2.94-16.13c-0.13-0.76-0.25-1.54-0.38-2.31c0,0-1.96-14.37-2.25-20.72c-0.02-0.43-0.03-0.83-0.03-1.18
							c-0.06-7.77,4.93-14.45,11.09-18.48c3.89-2.53,8.52-4.01,13.5-4.01c4.99,0,9.62,1.48,13.5,4.01
							c6.16,4.03,11.16,10.71,11.1,18.48C-26.602-104.703-26.612-104.363-26.632-103.993z M-51.202-123.193
							c-11.23,0-20.38,9.14-20.38,20.38c0,7.31,4.81,34.66,5.56,37c1.46,4.6,5.79,6.76,9.92,4.78c3.11-1.49,4.9-5.58,4.9-5.58
							s1.8,4.09,4.91,5.58c4.13,1.98,8.45-0.18,9.92-4.78c0.74-2.34,5.55-29.69,5.55-37
							C-30.822-114.053-39.962-123.193-51.202-123.193z"/>
					</g>
					<path id="XMLID_157_" class="st3" d="M-64.887-123.647c-2.192-0.167-4.133-1.213-4.012-4.353h9.921h15.181h9.921
						c0.12,3.14-1.82,4.186-4.013,4.353c-3.879-2.539-8.515-4.02-13.498-4.02C-56.371-127.668-61.006-126.187-64.887-123.647z"/>
					<path id="XMLID_156_" class="st3" d="M-47.08-77.057c0,0-1.153,3.576-4.178,3.576c-3.025,0-4.178-3.576-4.178-3.576
						l4.178-3.026L-47.08-77.057z"/>
					<path id="XMLID_153_" class="st2" d="M-41.075-69.467c-0.352,1.473-1.831,2.382-3.305,2.032
						c-1.474-0.35-2.384-1.831-2.031-3.305c0.35-1.473,1.831-2.382,3.303-2.032C-41.634-72.421-40.724-70.942-41.075-69.467z
						 M-42.422-70.158c-0.345,0.569-0.986,0.982-1.802,0.849c-0.431-0.072-0.732-0.263-0.924-0.516
						c-0.078,0.742,0.428,1.426,1.174,1.549c0.771,0.127,1.499-0.396,1.626-1.167C-42.307-69.693-42.34-69.936-42.422-70.158z"/>
					<path id="XMLID_138_" class="st2" d="M-58.395-67.435c-1.475,0.351-2.954-0.558-3.305-2.032
						c-0.352-1.475,0.559-2.954,2.033-3.305c1.474-0.351,2.954,0.559,3.303,2.032C-56.012-69.266-56.921-67.786-58.395-67.435z
						 M-58.551-69.255c-0.816,0.133-1.455-0.279-1.803-0.849c-0.08,0.221-0.115,0.465-0.073,0.714
						c0.127,0.771,0.854,1.294,1.627,1.167c0.746-0.122,1.253-0.806,1.172-1.549C-57.819-69.518-58.119-69.327-58.551-69.255z"/>
					<path id="XMLID_135_" class="st4" d="M-42.056-70.158"/>
				</g>
				<g id="masca_2_">
					<line id="XMLID_134_" class="st5" x1="-39.514" y1="-86.425" x2="-29.164" y2="-81.412"/>
					<line id="XMLID_133_" class="st5" x1="-39.514" y1="-76.782" x2="-29.833" y2="-77.421"/>
					<line id="XMLID_132_" class="st5" x1="-63.388" y1="-86.425" x2="-73.195" y2="-81.176"/>
					<line id="XMLID_131_" class="st5" x1="-63.388" y1="-76.782" x2="-72.565" y2="-77.421"/>
					<polygon id="XMLID_130_" class="st6" points="-38.936,-76.221 -51.257,-72.847 -51.257,-89.505 -38.936,-86.767 					"/>
					<polygon id="XMLID_129_" class="st7" points="-63.578,-76.221 -51.257,-72.847 -51.257,-89.505 -63.578,-86.767 					"/>
				</g>
			</g>
		</g>
	</g>
</symbol>
<g id="Layer_3">
</g>
<g id="Capa_1">
</g>
<g id="Layer_1">
</g>
<g id="Logo_Text">
</g>
<g id="Logo_Patrat">
	
		<use xlink:href="#Logoalb"  width="245.586" height="256" x="-122.793" y="-128" transform="matrix(1 0 0 -1 126.9419 128)" style="overflow:visible;"/>
</g>
</svg>
